<svg xmlns="http://www.w3.org/2000/svg" xmlns:xlink="http://www.w3.org/1999/xlink" width="1920" zoomAndPan="magnify" viewBox="0 0 1440 809.999993" height="1080" preserveAspectRatio="xMidYMid meet" version="1.0"><defs><g/></defs><g fill="#267958" fill-opacity="1"><g transform="translate(580.728729, 422.361678)"><g><path d="M 1.53125 0.96875 C 1.226562 0.164062 0.984375 -0.835938 0.796875 -2.046875 C 0.609375 -3.265625 0.503906 -4.53125 0.484375 -5.84375 C 0.460938 -7.15625 0.5 -8.414062 0.59375 -9.625 C 0.6875 -10.84375 0.867188 -11.851562 1.140625 -12.65625 C 1.742188 -12.882812 2.390625 -13.265625 3.078125 -13.796875 C 3.765625 -14.328125 4.421875 -15.195312 5.046875 -16.40625 C 5.671875 -17.625 6.15625 -19.335938 6.5 -21.546875 C 6.800781 -23.367188 6.875 -24.859375 6.71875 -26.015625 C 6.570312 -27.179688 6.296875 -28.078125 5.890625 -28.703125 C 5.492188 -29.328125 5.078125 -29.757812 4.640625 -30 C 4.203125 -30.25 3.832031 -30.375 3.53125 -30.375 C 3.1875 -31.0625 2.9375 -31.992188 2.78125 -33.171875 C 2.632812 -34.347656 2.570312 -35.609375 2.59375 -36.953125 C 2.613281 -38.304688 2.71875 -39.617188 2.90625 -40.890625 C 3.09375 -42.171875 3.378906 -43.265625 3.765625 -44.171875 C 5.203125 -44.023438 6.957031 -43.851562 9.03125 -43.65625 C 11.101562 -43.46875 13.453125 -43.375 16.078125 -43.375 C 18.203125 -43.375 20.453125 -43.410156 22.828125 -43.484375 C 25.203125 -43.566406 27.507812 -43.664062 29.75 -43.78125 C 31.988281 -43.894531 33.945312 -44.023438 35.625 -44.171875 C 35.394531 -42.734375 35.347656 -40.929688 35.484375 -38.765625 C 35.617188 -36.597656 36.195312 -34.503906 37.21875 -32.484375 C 37.257812 -34.578125 37.328125 -36.675781 37.421875 -38.78125 C 37.515625 -40.894531 37.695312 -42.691406 37.96875 -44.171875 C 39.5625 -44.097656 41.0625 -43.992188 42.46875 -43.859375 C 43.875 -43.722656 45.34375 -43.609375 46.875 -43.515625 C 48.414062 -43.421875 50.175781 -43.375 52.15625 -43.375 C 53.445312 -43.375 54.925781 -43.421875 56.59375 -43.515625 C 58.269531 -43.609375 59.882812 -43.722656 61.4375 -43.859375 C 63 -43.992188 64.253906 -44.097656 65.203125 -44.171875 C 65.585938 -43.265625 65.875 -42.171875 66.0625 -40.890625 C 66.25 -39.617188 66.351562 -38.304688 66.375 -36.953125 C 66.394531 -35.609375 66.328125 -34.347656 66.171875 -33.171875 C 66.023438 -31.992188 65.78125 -31.0625 65.4375 -30.375 C 65.164062 -30.375 64.8125 -30.25 64.375 -30 C 63.9375 -29.757812 63.535156 -29.328125 63.171875 -28.703125 C 62.816406 -28.078125 62.601562 -27.203125 62.53125 -26.078125 C 62.457031 -24.953125 62.609375 -23.476562 62.984375 -21.65625 C 63.472656 -19.457031 64.015625 -17.738281 64.609375 -16.5 C 65.203125 -15.269531 65.8125 -14.378906 66.4375 -13.828125 C 67.0625 -13.273438 67.675781 -12.882812 68.28125 -12.65625 C 68.550781 -11.851562 68.734375 -10.84375 68.828125 -9.625 C 68.921875 -8.414062 68.957031 -7.15625 68.9375 -5.84375 C 68.914062 -4.53125 68.8125 -3.265625 68.625 -2.046875 C 68.4375 -0.835938 68.191406 0.164062 67.890625 0.96875 C 66.328125 0.8125 64.429688 0.617188 62.203125 0.390625 C 59.984375 0.171875 57.1875 0.0625 53.8125 0.0625 C 50.582031 0.0625 47.507812 0.171875 44.59375 0.390625 C 41.6875 0.617188 39.457031 0.8125 37.90625 0.96875 C 37.75 0.164062 37.613281 -0.835938 37.5 -2.046875 C 37.382812 -3.265625 37.304688 -4.53125 37.265625 -5.84375 C 37.234375 -7.15625 37.234375 -8.414062 37.265625 -9.625 C 37.304688 -10.84375 37.382812 -11.851562 37.5 -12.65625 L 39.5 -12.65625 L 38.9375 -19.03125 L 35.5625 -9.34375 L 24.515625 -14.1875 L 23.828125 -12.65625 L 30.03125 -9.859375 C 30.90625 -9.484375 31.742188 -9.078125 32.546875 -8.640625 C 33.347656 -8.203125 34.03125 -7.617188 34.59375 -6.890625 C 35.164062 -6.171875 35.554688 -5.191406 35.765625 -3.953125 C 35.972656 -2.722656 35.925781 -1.082031 35.625 0.96875 C 34.90625 0.894531 33.898438 0.804688 32.609375 0.703125 C 31.316406 0.609375 29.878906 0.515625 28.296875 0.421875 C 26.722656 0.328125 25.109375 0.242188 23.453125 0.171875 C 21.796875 0.0976562 20.25 0.0625 18.8125 0.0625 C 14.59375 0.0625 11.03125 0.171875 8.125 0.390625 C 5.21875 0.617188 3.019531 0.8125 1.53125 0.96875 Z M 1.53125 0.96875 "/></g></g></g><g fill="#267958" fill-opacity="1"><g transform="translate(648.943695, 422.361678)"><g><path d="M 26.625 2 C 9.25 2 0.5625 -5.066406 0.5625 -19.203125 C 0.5625 -26.921875 2.753906 -32.582031 7.140625 -36.1875 C 11.535156 -39.800781 18.125 -41.609375 26.90625 -41.609375 C 36.21875 -41.609375 42.988281 -39.832031 47.21875 -36.28125 C 51.457031 -32.726562 53.578125 -27.492188 53.578125 -20.578125 C 53.578125 -12.785156 51.332031 -7.070312 46.84375 -3.4375 C 42.363281 0.1875 35.625 2 26.625 2 Z M 25.53125 -16.703125 L 28.609375 -16.703125 L 28.609375 -22.90625 L 25.53125 -22.90625 Z M 25.53125 -16.703125 "/></g></g></g><g fill="#267958" fill-opacity="1"><g transform="translate(701.999772, 422.361678)"><g><path d="M 17.734375 1.078125 C 15.785156 1.078125 14.269531 0.632812 13.1875 -0.25 C 12.113281 -1.144531 11.195312 -2.296875 10.4375 -3.703125 C 9.59375 -5.335938 8.90625 -7.148438 8.375 -9.140625 C 7.84375 -11.140625 7.394531 -13.164062 7.03125 -15.21875 C 6.675781 -17.269531 6.304688 -19.171875 5.921875 -20.921875 C 5.472656 -23.160156 4.816406 -24.6875 3.953125 -25.5 C 3.097656 -26.320312 2.21875 -26.753906 1.3125 -26.796875 C 1.007812 -27.441406 0.78125 -28.359375 0.625 -29.546875 C 0.476562 -30.742188 0.410156 -32.035156 0.421875 -33.421875 C 0.441406 -34.816406 0.546875 -36.160156 0.734375 -37.453125 C 0.929688 -38.742188 1.195312 -39.804688 1.53125 -40.640625 C 2.976562 -40.523438 5.019531 -40.375 7.65625 -40.1875 C 10.300781 -40 13.257812 -39.90625 16.53125 -39.90625 C 19 -39.90625 21.398438 -40 23.734375 -40.1875 C 26.078125 -40.375 27.96875 -40.523438 29.40625 -40.640625 C 28.457031 -36.921875 28.304688 -32.863281 28.953125 -28.46875 C 29.597656 -24.082031 30.738281 -19.703125 32.375 -15.328125 L 32.3125 -27.125 L 30.71875 -27.125 C 30.300781 -29.9375 30.160156 -32.484375 30.296875 -34.765625 C 30.429688 -37.046875 30.707031 -39.003906 31.125 -40.640625 C 32.113281 -40.523438 33.164062 -40.410156 34.28125 -40.296875 C 35.40625 -40.179688 36.832031 -40.085938 38.5625 -40.015625 C 40.289062 -39.941406 42.503906 -39.90625 45.203125 -39.90625 C 46.335938 -39.90625 47.632812 -39.953125 49.09375 -40.046875 C 50.5625 -40.140625 52.007812 -40.242188 53.4375 -40.359375 C 54.863281 -40.472656 56.050781 -40.566406 57 -40.640625 C 57.34375 -39.804688 57.597656 -38.742188 57.765625 -37.453125 C 57.941406 -36.160156 58.03125 -34.816406 58.03125 -33.421875 C 58.03125 -32.035156 57.953125 -30.742188 57.796875 -29.546875 C 57.640625 -28.359375 57.410156 -27.441406 57.109375 -26.796875 C 56.234375 -26.753906 55.472656 -26.351562 54.828125 -25.59375 C 54.179688 -24.832031 53.59375 -23.425781 53.0625 -21.375 C 52.34375 -18.445312 51.6875 -15.644531 51.09375 -12.96875 C 50.507812 -10.289062 49.828125 -7.894531 49.046875 -5.78125 C 48.265625 -3.675781 47.253906 -2.015625 46.015625 -0.796875 C 44.785156 0.421875 43.164062 1.03125 41.15625 1.03125 C 39.863281 1.03125 38.75 0.988281 37.8125 0.90625 C 36.882812 0.832031 36.003906 0.75 35.171875 0.65625 C 34.335938 0.5625 33.40625 0.472656 32.375 0.390625 C 31.351562 0.316406 30.082031 0.28125 28.5625 0.28125 C 26.695312 0.28125 25.144531 0.347656 23.90625 0.484375 C 22.675781 0.617188 21.59375 0.75 20.65625 0.875 C 19.726562 1.007812 18.753906 1.078125 17.734375 1.078125 Z M 17.734375 1.078125 "/></g></g></g><g fill="#267958" fill-opacity="1"><g transform="translate(760.46982, 422.361678)"><g><path d="M 1.828125 0.96875 C 1.523438 0.207031 1.273438 -0.769531 1.078125 -1.96875 C 0.890625 -3.164062 0.785156 -4.425781 0.765625 -5.75 C 0.742188 -7.082031 0.78125 -8.347656 0.875 -9.546875 C 0.976562 -10.742188 1.160156 -11.722656 1.421875 -12.484375 C 1.992188 -12.710938 2.546875 -13.070312 3.078125 -13.5625 C 3.609375 -14.0625 4.050781 -14.800781 4.40625 -15.78125 C 4.769531 -16.769531 4.953125 -18.125 4.953125 -19.84375 C 4.953125 -21.507812 4.734375 -22.804688 4.296875 -23.734375 C 3.859375 -24.671875 3.363281 -25.359375 2.8125 -25.796875 C 2.269531 -26.234375 1.804688 -26.546875 1.421875 -26.734375 C 1.078125 -27.378906 0.828125 -28.300781 0.671875 -29.5 C 0.523438 -30.695312 0.460938 -32 0.484375 -33.40625 C 0.503906 -34.8125 0.609375 -36.160156 0.796875 -37.453125 C 0.984375 -38.742188 1.269531 -39.804688 1.65625 -40.640625 C 2.070312 -40.597656 2.429688 -40.546875 2.734375 -40.484375 C 3.035156 -40.429688 3.378906 -40.390625 3.765625 -40.359375 C 3.609375 -38.003906 4.082031 -35.976562 5.1875 -34.28125 C 6.289062 -32.59375 7.800781 -31.382812 9.71875 -30.65625 C 11.632812 -29.9375 13.675781 -29.785156 15.84375 -30.203125 C 14.019531 -30.285156 12.335938 -30.769531 10.796875 -31.65625 C 9.265625 -32.550781 8.03125 -33.75 7.09375 -35.25 C 6.164062 -36.75 5.703125 -38.429688 5.703125 -40.296875 C 5.703125 -41.859375 6.070312 -43.367188 6.8125 -44.828125 C 7.550781 -46.296875 8.796875 -47.515625 10.546875 -48.484375 C 12.296875 -49.453125 14.648438 -49.9375 17.609375 -49.9375 C 22.359375 -49.9375 25.828125 -48.75 28.015625 -46.375 C 30.203125 -44 31.296875 -40.492188 31.296875 -35.859375 C 31.296875 -33.691406 31.113281 -31.703125 30.75 -29.890625 C 30.382812 -28.085938 30.019531 -26.359375 29.65625 -24.703125 C 29.300781 -23.054688 29.125 -21.378906 29.125 -19.671875 C 29.125 -18.035156 29.300781 -16.722656 29.65625 -15.734375 C 30.019531 -14.742188 30.476562 -14.007812 31.03125 -13.53125 C 31.582031 -13.0625 32.125 -12.710938 32.65625 -12.484375 C 32.925781 -11.722656 33.109375 -10.742188 33.203125 -9.546875 C 33.296875 -8.347656 33.332031 -7.082031 33.3125 -5.75 C 33.289062 -4.425781 33.1875 -3.164062 33 -1.96875 C 32.8125 -0.769531 32.566406 0.207031 32.265625 0.96875 C 31.203125 0.851562 29.820312 0.726562 28.125 0.59375 C 26.4375 0.46875 24.601562 0.351562 22.625 0.25 C 20.65625 0.15625 18.679688 0.109375 16.703125 0.109375 C 14.878906 0.109375 13.023438 0.15625 11.140625 0.25 C 9.265625 0.351562 7.507812 0.46875 5.875 0.59375 C 4.238281 0.726562 2.890625 0.851562 1.828125 0.96875 Z M 1.828125 0.96875 "/></g></g></g><g fill="#267958" fill-opacity="1"><g transform="translate(793.352024, 422.361678)"><g><path d="M 27.015625 1.9375 C 20.828125 1.9375 15.785156 1.070312 11.890625 -0.65625 C 7.992188 -2.382812 5.128906 -4.863281 3.296875 -8.09375 C 1.472656 -11.320312 0.5625 -15.21875 0.5625 -19.78125 C 0.5625 -25.019531 1.539062 -29.234375 3.5 -32.421875 C 5.457031 -35.617188 8.503906 -37.945312 12.640625 -39.40625 C 16.785156 -40.875 22.128906 -41.609375 28.671875 -41.609375 C 33.535156 -41.609375 37.875 -41.09375 41.6875 -40.0625 C 45.507812 -39.039062 48.519531 -37.53125 50.71875 -35.53125 C 52.925781 -33.539062 54.03125 -31.082031 54.03125 -28.15625 C 54.03125 -27.09375 53.867188 -26.019531 53.546875 -24.9375 C 53.222656 -23.851562 52.566406 -22.875 51.578125 -22 C 50.597656 -21.125 49.117188 -20.421875 47.140625 -19.890625 C 45.160156 -19.359375 42.519531 -19.09375 39.21875 -19.09375 C 37.007812 -19.09375 35.019531 -19.117188 33.25 -19.171875 C 31.488281 -19.234375 29.867188 -19.34375 28.390625 -19.5 L 25.53125 -19.5 L 25.53125 -15.28125 L 28.328125 -15.28125 L 28.328125 -17.5625 C 36.378906 -17.9375 44.890625 -17.9375 53.859375 -17.5625 C 53.859375 -13.34375 52.945312 -9.785156 51.125 -6.890625 C 49.300781 -4.003906 46.429688 -1.8125 42.515625 -0.3125 C 38.609375 1.1875 33.441406 1.9375 27.015625 1.9375 Z M 25.53125 -22.453125 L 28.328125 -22.453125 L 28.328125 -25.765625 L 25.53125 -25.765625 Z M 25.53125 -22.453125 "/></g></g></g><g fill="#267958" fill-opacity="1"><g transform="translate(848.003877, 422.361678)"><g><path d="M 34.03125 1.828125 C 29.164062 1.828125 25.445312 1.21875 22.875 0 C 20.3125 -1.21875 18.992188 -3.363281 18.921875 -6.4375 C 18.460938 -5.144531 18.316406 -3.9375 18.484375 -2.8125 C 18.660156 -1.695312 18.941406 -0.585938 19.328125 0.515625 C 15.566406 0.628906 12.144531 0.742188 9.0625 0.859375 C 5.988281 0.972656 3.441406 1.007812 1.421875 0.96875 C 0.929688 -1.84375 0.65625 -4.632812 0.59375 -7.40625 C 0.539062 -10.1875 0.742188 -13.113281 1.203125 -16.1875 C 3.972656 -16.1875 6.640625 -15.851562 9.203125 -15.1875 C 11.765625 -14.519531 14.035156 -13.46875 16.015625 -12.03125 L 17.09375 -13.34375 C 16 -14.132812 14.851562 -14.785156 13.65625 -15.296875 C 12.457031 -15.816406 11.191406 -16.285156 9.859375 -16.703125 C 8.078125 -17.304688 6.453125 -18.101562 4.984375 -19.09375 C 3.523438 -20.082031 2.375 -21.335938 1.53125 -22.859375 C 0.695312 -24.378906 0.28125 -26.238281 0.28125 -28.4375 C 0.28125 -30.800781 0.820312 -32.96875 1.90625 -34.9375 C 2.988281 -36.914062 4.707031 -38.503906 7.0625 -39.703125 C 9.425781 -40.898438 12.46875 -41.5 16.1875 -41.5 C 21.007812 -41.5 24.722656 -40.859375 27.328125 -39.578125 C 29.929688 -38.304688 31.269531 -36.039062 31.34375 -32.78125 C 31.84375 -34.101562 32.023438 -35.34375 31.890625 -36.5 C 31.753906 -37.664062 31.460938 -38.894531 31.015625 -40.1875 C 33.710938 -40.21875 36.035156 -40.257812 37.984375 -40.3125 C 39.941406 -40.375 41.71875 -40.429688 43.3125 -40.484375 C 44.914062 -40.546875 46.457031 -40.578125 47.9375 -40.578125 C 48.46875 -38.078125 48.75 -35.363281 48.78125 -32.4375 C 48.820312 -29.507812 48.632812 -26.523438 48.21875 -23.484375 C 45.445312 -23.523438 43.109375 -23.8125 41.203125 -24.34375 C 39.304688 -24.875 37.46875 -25.691406 35.6875 -26.796875 L 34.71875 -25.421875 C 35.664062 -24.816406 36.535156 -24.332031 37.328125 -23.96875 C 38.128906 -23.601562 38.851562 -23.289062 39.5 -23.03125 C 41.820312 -22.082031 43.722656 -21.066406 45.203125 -19.984375 C 46.679688 -18.898438 47.78125 -17.585938 48.5 -16.046875 C 49.226562 -14.503906 49.59375 -12.59375 49.59375 -10.3125 C 49.59375 -7.539062 49.097656 -5.335938 48.109375 -3.703125 C 47.117188 -2.066406 45.832031 -0.859375 44.25 -0.078125 C 42.675781 0.691406 40.988281 1.203125 39.1875 1.453125 C 37.382812 1.703125 35.664062 1.828125 34.03125 1.828125 Z M 34.03125 1.828125 "/></g></g></g><g fill="#e9bbed" fill-opacity="1"><g transform="translate(574.235769, 419.605576)"><g><path d="M 1.53125 0.96875 C 1.226562 0.164062 0.984375 -0.835938 0.796875 -2.046875 C 0.609375 -3.265625 0.503906 -4.53125 0.484375 -5.84375 C 0.460938 -7.15625 0.5 -8.414062 0.59375 -9.625 C 0.6875 -10.84375 0.867188 -11.851562 1.140625 -12.65625 C 1.742188 -12.882812 2.390625 -13.265625 3.078125 -13.796875 C 3.765625 -14.328125 4.421875 -15.195312 5.046875 -16.40625 C 5.671875 -17.625 6.15625 -19.335938 6.5 -21.546875 C 6.800781 -23.367188 6.875 -24.859375 6.71875 -26.015625 C 6.570312 -27.179688 6.296875 -28.078125 5.890625 -28.703125 C 5.492188 -29.328125 5.078125 -29.757812 4.640625 -30 C 4.203125 -30.25 3.832031 -30.375 3.53125 -30.375 C 3.1875 -31.0625 2.9375 -31.992188 2.78125 -33.171875 C 2.632812 -34.347656 2.570312 -35.609375 2.59375 -36.953125 C 2.613281 -38.304688 2.71875 -39.617188 2.90625 -40.890625 C 3.09375 -42.171875 3.378906 -43.265625 3.765625 -44.171875 C 5.203125 -44.023438 6.957031 -43.851562 9.03125 -43.65625 C 11.101562 -43.46875 13.453125 -43.375 16.078125 -43.375 C 18.203125 -43.375 20.453125 -43.410156 22.828125 -43.484375 C 25.203125 -43.566406 27.507812 -43.664062 29.75 -43.78125 C 31.988281 -43.894531 33.945312 -44.023438 35.625 -44.171875 C 35.394531 -42.734375 35.347656 -40.929688 35.484375 -38.765625 C 35.617188 -36.597656 36.195312 -34.503906 37.21875 -32.484375 C 37.257812 -34.578125 37.328125 -36.675781 37.421875 -38.78125 C 37.515625 -40.894531 37.695312 -42.691406 37.96875 -44.171875 C 39.5625 -44.097656 41.0625 -43.992188 42.46875 -43.859375 C 43.875 -43.722656 45.34375 -43.609375 46.875 -43.515625 C 48.414062 -43.421875 50.175781 -43.375 52.15625 -43.375 C 53.445312 -43.375 54.925781 -43.421875 56.59375 -43.515625 C 58.269531 -43.609375 59.882812 -43.722656 61.4375 -43.859375 C 63 -43.992188 64.253906 -44.097656 65.203125 -44.171875 C 65.585938 -43.265625 65.875 -42.171875 66.0625 -40.890625 C 66.25 -39.617188 66.351562 -38.304688 66.375 -36.953125 C 66.394531 -35.609375 66.328125 -34.347656 66.171875 -33.171875 C 66.023438 -31.992188 65.78125 -31.0625 65.4375 -30.375 C 65.164062 -30.375 64.8125 -30.25 64.375 -30 C 63.9375 -29.757812 63.535156 -29.328125 63.171875 -28.703125 C 62.816406 -28.078125 62.601562 -27.203125 62.53125 -26.078125 C 62.457031 -24.953125 62.609375 -23.476562 62.984375 -21.65625 C 63.472656 -19.457031 64.015625 -17.738281 64.609375 -16.5 C 65.203125 -15.269531 65.8125 -14.378906 66.4375 -13.828125 C 67.0625 -13.273438 67.675781 -12.882812 68.28125 -12.65625 C 68.550781 -11.851562 68.734375 -10.84375 68.828125 -9.625 C 68.921875 -8.414062 68.957031 -7.15625 68.9375 -5.84375 C 68.914062 -4.53125 68.8125 -3.265625 68.625 -2.046875 C 68.4375 -0.835938 68.191406 0.164062 67.890625 0.96875 C 66.328125 0.8125 64.429688 0.617188 62.203125 0.390625 C 59.984375 0.171875 57.1875 0.0625 53.8125 0.0625 C 50.582031 0.0625 47.507812 0.171875 44.59375 0.390625 C 41.6875 0.617188 39.457031 0.8125 37.90625 0.96875 C 37.75 0.164062 37.613281 -0.835938 37.5 -2.046875 C 37.382812 -3.265625 37.304688 -4.53125 37.265625 -5.84375 C 37.234375 -7.15625 37.234375 -8.414062 37.265625 -9.625 C 37.304688 -10.84375 37.382812 -11.851562 37.5 -12.65625 L 39.5 -12.65625 L 38.9375 -19.03125 L 35.5625 -9.34375 L 24.515625 -14.1875 L 23.828125 -12.65625 L 30.03125 -9.859375 C 30.90625 -9.484375 31.742188 -9.078125 32.546875 -8.640625 C 33.347656 -8.203125 34.03125 -7.617188 34.59375 -6.890625 C 35.164062 -6.171875 35.554688 -5.191406 35.765625 -3.953125 C 35.972656 -2.722656 35.925781 -1.082031 35.625 0.96875 C 34.90625 0.894531 33.898438 0.804688 32.609375 0.703125 C 31.316406 0.609375 29.878906 0.515625 28.296875 0.421875 C 26.722656 0.328125 25.109375 0.242188 23.453125 0.171875 C 21.796875 0.0976562 20.25 0.0625 18.8125 0.0625 C 14.59375 0.0625 11.03125 0.171875 8.125 0.390625 C 5.21875 0.617188 3.019531 0.8125 1.53125 0.96875 Z M 1.53125 0.96875 "/></g></g></g><g fill="#e9bbed" fill-opacity="1"><g transform="translate(642.450735, 419.605576)"><g><path d="M 26.625 2 C 9.25 2 0.5625 -5.066406 0.5625 -19.203125 C 0.5625 -26.921875 2.753906 -32.582031 7.140625 -36.1875 C 11.535156 -39.800781 18.125 -41.609375 26.90625 -41.609375 C 36.21875 -41.609375 42.988281 -39.832031 47.21875 -36.28125 C 51.457031 -32.726562 53.578125 -27.492188 53.578125 -20.578125 C 53.578125 -12.785156 51.332031 -7.070312 46.84375 -3.4375 C 42.363281 0.1875 35.625 2 26.625 2 Z M 25.53125 -16.703125 L 28.609375 -16.703125 L 28.609375 -22.90625 L 25.53125 -22.90625 Z M 25.53125 -16.703125 "/></g></g></g><g fill="#e9bbed" fill-opacity="1"><g transform="translate(695.506812, 419.605576)"><g><path d="M 17.734375 1.078125 C 15.785156 1.078125 14.269531 0.632812 13.1875 -0.25 C 12.113281 -1.144531 11.195312 -2.296875 10.4375 -3.703125 C 9.59375 -5.335938 8.90625 -7.148438 8.375 -9.140625 C 7.84375 -11.140625 7.394531 -13.164062 7.03125 -15.21875 C 6.675781 -17.269531 6.304688 -19.171875 5.921875 -20.921875 C 5.472656 -23.160156 4.816406 -24.6875 3.953125 -25.5 C 3.097656 -26.320312 2.21875 -26.753906 1.3125 -26.796875 C 1.007812 -27.441406 0.78125 -28.359375 0.625 -29.546875 C 0.476562 -30.742188 0.410156 -32.035156 0.421875 -33.421875 C 0.441406 -34.816406 0.546875 -36.160156 0.734375 -37.453125 C 0.929688 -38.742188 1.195312 -39.804688 1.53125 -40.640625 C 2.976562 -40.523438 5.019531 -40.375 7.65625 -40.1875 C 10.300781 -40 13.257812 -39.90625 16.53125 -39.90625 C 19 -39.90625 21.398438 -40 23.734375 -40.1875 C 26.078125 -40.375 27.96875 -40.523438 29.40625 -40.640625 C 28.457031 -36.921875 28.304688 -32.863281 28.953125 -28.46875 C 29.597656 -24.082031 30.738281 -19.703125 32.375 -15.328125 L 32.3125 -27.125 L 30.71875 -27.125 C 30.300781 -29.9375 30.160156 -32.484375 30.296875 -34.765625 C 30.429688 -37.046875 30.707031 -39.003906 31.125 -40.640625 C 32.113281 -40.523438 33.164062 -40.410156 34.28125 -40.296875 C 35.40625 -40.179688 36.832031 -40.085938 38.5625 -40.015625 C 40.289062 -39.941406 42.503906 -39.90625 45.203125 -39.90625 C 46.335938 -39.90625 47.632812 -39.953125 49.09375 -40.046875 C 50.5625 -40.140625 52.007812 -40.242188 53.4375 -40.359375 C 54.863281 -40.472656 56.050781 -40.566406 57 -40.640625 C 57.34375 -39.804688 57.597656 -38.742188 57.765625 -37.453125 C 57.941406 -36.160156 58.03125 -34.816406 58.03125 -33.421875 C 58.03125 -32.035156 57.953125 -30.742188 57.796875 -29.546875 C 57.640625 -28.359375 57.410156 -27.441406 57.109375 -26.796875 C 56.234375 -26.753906 55.472656 -26.351562 54.828125 -25.59375 C 54.179688 -24.832031 53.59375 -23.425781 53.0625 -21.375 C 52.34375 -18.445312 51.6875 -15.644531 51.09375 -12.96875 C 50.507812 -10.289062 49.828125 -7.894531 49.046875 -5.78125 C 48.265625 -3.675781 47.253906 -2.015625 46.015625 -0.796875 C 44.785156 0.421875 43.164062 1.03125 41.15625 1.03125 C 39.863281 1.03125 38.75 0.988281 37.8125 0.90625 C 36.882812 0.832031 36.003906 0.75 35.171875 0.65625 C 34.335938 0.5625 33.40625 0.472656 32.375 0.390625 C 31.351562 0.316406 30.082031 0.28125 28.5625 0.28125 C 26.695312 0.28125 25.144531 0.347656 23.90625 0.484375 C 22.675781 0.617188 21.59375 0.75 20.65625 0.875 C 19.726562 1.007812 18.753906 1.078125 17.734375 1.078125 Z M 17.734375 1.078125 "/></g></g></g><g fill="#e9bbed" fill-opacity="1"><g transform="translate(753.976861, 419.605576)"><g><path d="M 1.828125 0.96875 C 1.523438 0.207031 1.273438 -0.769531 1.078125 -1.96875 C 0.890625 -3.164062 0.785156 -4.425781 0.765625 -5.75 C 0.742188 -7.082031 0.78125 -8.347656 0.875 -9.546875 C 0.976562 -10.742188 1.160156 -11.722656 1.421875 -12.484375 C 1.992188 -12.710938 2.546875 -13.070312 3.078125 -13.5625 C 3.609375 -14.0625 4.050781 -14.800781 4.40625 -15.78125 C 4.769531 -16.769531 4.953125 -18.125 4.953125 -19.84375 C 4.953125 -21.507812 4.734375 -22.804688 4.296875 -23.734375 C 3.859375 -24.671875 3.363281 -25.359375 2.8125 -25.796875 C 2.269531 -26.234375 1.804688 -26.546875 1.421875 -26.734375 C 1.078125 -27.378906 0.828125 -28.300781 0.671875 -29.5 C 0.523438 -30.695312 0.460938 -32 0.484375 -33.40625 C 0.503906 -34.8125 0.609375 -36.160156 0.796875 -37.453125 C 0.984375 -38.742188 1.269531 -39.804688 1.65625 -40.640625 C 2.070312 -40.597656 2.429688 -40.546875 2.734375 -40.484375 C 3.035156 -40.429688 3.378906 -40.390625 3.765625 -40.359375 C 3.609375 -38.003906 4.082031 -35.976562 5.1875 -34.28125 C 6.289062 -32.59375 7.800781 -31.382812 9.71875 -30.65625 C 11.632812 -29.9375 13.675781 -29.785156 15.84375 -30.203125 C 14.019531 -30.285156 12.335938 -30.769531 10.796875 -31.65625 C 9.265625 -32.550781 8.03125 -33.75 7.09375 -35.25 C 6.164062 -36.75 5.703125 -38.429688 5.703125 -40.296875 C 5.703125 -41.859375 6.070312 -43.367188 6.8125 -44.828125 C 7.550781 -46.296875 8.796875 -47.515625 10.546875 -48.484375 C 12.296875 -49.453125 14.648438 -49.9375 17.609375 -49.9375 C 22.359375 -49.9375 25.828125 -48.75 28.015625 -46.375 C 30.203125 -44 31.296875 -40.492188 31.296875 -35.859375 C 31.296875 -33.691406 31.113281 -31.703125 30.75 -29.890625 C 30.382812 -28.085938 30.019531 -26.359375 29.65625 -24.703125 C 29.300781 -23.054688 29.125 -21.378906 29.125 -19.671875 C 29.125 -18.035156 29.300781 -16.722656 29.65625 -15.734375 C 30.019531 -14.742188 30.476562 -14.007812 31.03125 -13.53125 C 31.582031 -13.0625 32.125 -12.710938 32.65625 -12.484375 C 32.925781 -11.722656 33.109375 -10.742188 33.203125 -9.546875 C 33.296875 -8.347656 33.332031 -7.082031 33.3125 -5.75 C 33.289062 -4.425781 33.1875 -3.164062 33 -1.96875 C 32.8125 -0.769531 32.566406 0.207031 32.265625 0.96875 C 31.203125 0.851562 29.820312 0.726562 28.125 0.59375 C 26.4375 0.46875 24.601562 0.351562 22.625 0.25 C 20.65625 0.15625 18.679688 0.109375 16.703125 0.109375 C 14.878906 0.109375 13.023438 0.15625 11.140625 0.25 C 9.265625 0.351562 7.507812 0.46875 5.875 0.59375 C 4.238281 0.726562 2.890625 0.851562 1.828125 0.96875 Z M 1.828125 0.96875 "/></g></g></g><g fill="#e9bbed" fill-opacity="1"><g transform="translate(786.859065, 419.605576)"><g><path d="M 27.015625 1.9375 C 20.828125 1.9375 15.785156 1.070312 11.890625 -0.65625 C 7.992188 -2.382812 5.128906 -4.863281 3.296875 -8.09375 C 1.472656 -11.320312 0.5625 -15.21875 0.5625 -19.78125 C 0.5625 -25.019531 1.539062 -29.234375 3.5 -32.421875 C 5.457031 -35.617188 8.503906 -37.945312 12.640625 -39.40625 C 16.785156 -40.875 22.128906 -41.609375 28.671875 -41.609375 C 33.535156 -41.609375 37.875 -41.09375 41.6875 -40.0625 C 45.507812 -39.039062 48.519531 -37.53125 50.71875 -35.53125 C 52.925781 -33.539062 54.03125 -31.082031 54.03125 -28.15625 C 54.03125 -27.09375 53.867188 -26.019531 53.546875 -24.9375 C 53.222656 -23.851562 52.566406 -22.875 51.578125 -22 C 50.597656 -21.125 49.117188 -20.421875 47.140625 -19.890625 C 45.160156 -19.359375 42.519531 -19.09375 39.21875 -19.09375 C 37.007812 -19.09375 35.019531 -19.117188 33.25 -19.171875 C 31.488281 -19.234375 29.867188 -19.34375 28.390625 -19.5 L 25.53125 -19.5 L 25.53125 -15.28125 L 28.328125 -15.28125 L 28.328125 -17.5625 C 36.378906 -17.9375 44.890625 -17.9375 53.859375 -17.5625 C 53.859375 -13.34375 52.945312 -9.785156 51.125 -6.890625 C 49.300781 -4.003906 46.429688 -1.8125 42.515625 -0.3125 C 38.609375 1.1875 33.441406 1.9375 27.015625 1.9375 Z M 25.53125 -22.453125 L 28.328125 -22.453125 L 28.328125 -25.765625 L 25.53125 -25.765625 Z M 25.53125 -22.453125 "/></g></g></g><g fill="#e9bbed" fill-opacity="1"><g transform="translate(841.510918, 419.605576)"><g><path d="M 34.03125 1.828125 C 29.164062 1.828125 25.445312 1.21875 22.875 0 C 20.3125 -1.21875 18.992188 -3.363281 18.921875 -6.4375 C 18.460938 -5.144531 18.316406 -3.9375 18.484375 -2.8125 C 18.660156 -1.695312 18.941406 -0.585938 19.328125 0.515625 C 15.566406 0.628906 12.144531 0.742188 9.0625 0.859375 C 5.988281 0.972656 3.441406 1.007812 1.421875 0.96875 C 0.929688 -1.84375 0.65625 -4.632812 0.59375 -7.40625 C 0.539062 -10.1875 0.742188 -13.113281 1.203125 -16.1875 C 3.972656 -16.1875 6.640625 -15.851562 9.203125 -15.1875 C 11.765625 -14.519531 14.035156 -13.46875 16.015625 -12.03125 L 17.09375 -13.34375 C 16 -14.132812 14.851562 -14.785156 13.65625 -15.296875 C 12.457031 -15.816406 11.191406 -16.285156 9.859375 -16.703125 C 8.078125 -17.304688 6.453125 -18.101562 4.984375 -19.09375 C 3.523438 -20.082031 2.375 -21.335938 1.53125 -22.859375 C 0.695312 -24.378906 0.28125 -26.238281 0.28125 -28.4375 C 0.28125 -30.800781 0.820312 -32.96875 1.90625 -34.9375 C 2.988281 -36.914062 4.707031 -38.503906 7.0625 -39.703125 C 9.425781 -40.898438 12.46875 -41.5 16.1875 -41.5 C 21.007812 -41.5 24.722656 -40.859375 27.328125 -39.578125 C 29.929688 -38.304688 31.269531 -36.039062 31.34375 -32.78125 C 31.84375 -34.101562 32.023438 -35.34375 31.890625 -36.5 C 31.753906 -37.664062 31.460938 -38.894531 31.015625 -40.1875 C 33.710938 -40.21875 36.035156 -40.257812 37.984375 -40.3125 C 39.941406 -40.375 41.71875 -40.429688 43.3125 -40.484375 C 44.914062 -40.546875 46.457031 -40.578125 47.9375 -40.578125 C 48.46875 -38.078125 48.75 -35.363281 48.78125 -32.4375 C 48.820312 -29.507812 48.632812 -26.523438 48.21875 -23.484375 C 45.445312 -23.523438 43.109375 -23.8125 41.203125 -24.34375 C 39.304688 -24.875 37.46875 -25.691406 35.6875 -26.796875 L 34.71875 -25.421875 C 35.664062 -24.816406 36.535156 -24.332031 37.328125 -23.96875 C 38.128906 -23.601562 38.851562 -23.289062 39.5 -23.03125 C 41.820312 -22.082031 43.722656 -21.066406 45.203125 -19.984375 C 46.679688 -18.898438 47.78125 -17.585938 48.5 -16.046875 C 49.226562 -14.503906 49.59375 -12.59375 49.59375 -10.3125 C 49.59375 -7.539062 49.097656 -5.335938 48.109375 -3.703125 C 47.117188 -2.066406 45.832031 -0.859375 44.25 -0.078125 C 42.675781 0.691406 40.988281 1.203125 39.1875 1.453125 C 37.382812 1.703125 35.664062 1.828125 34.03125 1.828125 Z M 34.03125 1.828125 "/></g></g></g><path stroke-linecap="butt" transform="matrix(0.75, 0, 0, 0.75, 571.674985, 436.405606)" fill="none" stroke-linejoin="miter" d="M 0.00106105 2.000859 L 167.011486 2.000859 " stroke="#267958" stroke-width="4" stroke-opacity="1" stroke-miterlimit="4"/><path stroke-linecap="round" transform="matrix(0.75, 0, 0, 0.75, 571.674985, 436.405606)" fill="none" stroke-linejoin="round" d="M 180.011487 2.000859 C 180.011487 5.313359 177.323987 8.000859 174.011486 8.000859 C 170.698986 8.000859 168.011486 5.313359 168.011486 2.000859 C 168.011486 -1.311641 170.698986 -3.999142 174.011486 -3.999142 C 177.323987 -3.999142 180.011487 -1.311641 180.011487 2.000859 " stroke="#267958" stroke-width="4" stroke-opacity="1" stroke-miterlimit="4"/><path stroke-linecap="butt" transform="matrix(0, -0.75, 0.75, 0, 562.499402, 376.846611)" fill="none" stroke-linejoin="miter" d="M -0.00139308 1.500798 L 17.738191 1.500798 " stroke="#267958" stroke-width="3" stroke-opacity="1" stroke-miterlimit="4"/><path stroke-linecap="round" transform="matrix(0, -0.75, 0.75, 0, 562.499402, 376.846611)" fill="none" stroke-linejoin="round" d="M 27.488192 1.500798 C 27.488192 3.985173 25.472567 6.000798 22.988191 6.000798 C 20.498608 6.000798 18.488191 3.985173 18.488191 1.500798 C 18.488191 -0.983578 20.498608 -2.999203 22.988191 -2.999203 C 25.472567 -2.999203 27.488192 -0.983578 27.488192 1.500798 " stroke="#267958" stroke-width="3" stroke-opacity="1" stroke-miterlimit="4"/><g fill="#267958" fill-opacity="1"><g transform="translate(570.415106, 450.05817)"><g><path d="M -16 -3.203125 L -16 -12.796875 L -22.40625 -12.796875 L -22.40625 -16 L 0 -16 L 0 -3.203125 L -3.203125 -3.203125 L -3.203125 0 L -12.796875 0 L -12.796875 -3.203125 Z M -12.796875 -3.234375 L -3.203125 -3.234375 L -3.203125 -12.796875 L -12.796875 -12.796875 Z M -12.796875 -3.234375 "/></g></g></g><g fill="#267958" fill-opacity="1"><g transform="translate(570.415106, 427.657392)"><g><path d="M -9.609375 -3.203125 L -9.609375 -12.796875 L -12.796875 -12.796875 L -12.796875 -3.203125 L -16 -3.203125 L -16 -12.796875 L -12.796875 -12.796875 L -12.796875 -16 L 0 -16 L 0 -3.203125 L -3.203125 -3.203125 L -3.203125 0 L -6.40625 0 L -6.40625 -3.203125 Z M -6.40625 -3.234375 L -3.203125 -3.234375 L -3.203125 -12.796875 L -6.40625 -12.796875 Z M -9.625 -3.203125 L -9.625 0 L -12.796875 0 L -12.796875 -3.203125 Z M -9.625 -3.203125 "/></g></g></g><g fill="#267958" fill-opacity="1"><g transform="translate(570.415106, 405.256614)"><g><path d="M 0 -3.203125 L -3.203125 -3.203125 L -3.203125 0 L -12.796875 0 L -12.796875 3.203125 L -16 3.203125 L -16 0 L -22.40625 0 L -22.40625 -3.203125 L -16 -3.203125 L -16 -9.59375 L -12.796875 -9.59375 L -12.796875 -3.203125 L -3.203125 -3.203125 L -3.203125 -9.59375 L 0 -9.59375 Z M 0 -3.203125 "/></g></g></g><g fill="#267958" fill-opacity="1"><g transform="translate(570.415106, 389.260521)"><g><path d="M -9.609375 -3.203125 L -9.609375 -12.796875 L -12.796875 -12.796875 L -12.796875 -3.203125 L -16 -3.203125 L -16 -12.796875 L -12.796875 -12.796875 L -12.796875 -16 L 0 -16 L 0 -3.203125 L -3.203125 -3.203125 L -3.203125 0 L -6.40625 0 L -6.40625 -3.203125 Z M -6.40625 -3.234375 L -3.203125 -3.234375 L -3.203125 -12.796875 L -6.40625 -12.796875 Z M -9.625 -3.203125 L -9.625 0 L -12.796875 0 L -12.796875 -3.203125 Z M -9.625 -3.203125 "/></g></g></g><g fill="#e9bbed" fill-opacity="1"><g transform="translate(569.000906, 451.472394)"><g><path d="M -16 -3.203125 L -16 -12.796875 L -22.40625 -12.796875 L -22.40625 -16 L 0 -16 L 0 -3.203125 L -3.203125 -3.203125 L -3.203125 0 L -12.796875 0 L -12.796875 -3.203125 Z M -12.796875 -3.234375 L -3.203125 -3.234375 L -3.203125 -12.796875 L -12.796875 -12.796875 Z M -12.796875 -3.234375 "/></g></g></g><g fill="#e9bbed" fill-opacity="1"><g transform="translate(569.000906, 429.071616)"><g><path d="M -9.609375 -3.203125 L -9.609375 -12.796875 L -12.796875 -12.796875 L -12.796875 -3.203125 L -16 -3.203125 L -16 -12.796875 L -12.796875 -12.796875 L -12.796875 -16 L 0 -16 L 0 -3.203125 L -3.203125 -3.203125 L -3.203125 0 L -6.40625 0 L -6.40625 -3.203125 Z M -6.40625 -3.234375 L -3.203125 -3.234375 L -3.203125 -12.796875 L -6.40625 -12.796875 Z M -9.625 -3.203125 L -9.625 0 L -12.796875 0 L -12.796875 -3.203125 Z M -9.625 -3.203125 "/></g></g></g><g fill="#e9bbed" fill-opacity="1"><g transform="translate(569.000906, 406.670838)"><g><path d="M 0 -3.203125 L -3.203125 -3.203125 L -3.203125 0 L -12.796875 0 L -12.796875 3.203125 L -16 3.203125 L -16 0 L -22.40625 0 L -22.40625 -3.203125 L -16 -3.203125 L -16 -9.59375 L -12.796875 -9.59375 L -12.796875 -3.203125 L -3.203125 -3.203125 L -3.203125 -9.59375 L 0 -9.59375 Z M 0 -3.203125 "/></g></g></g><g fill="#e9bbed" fill-opacity="1"><g transform="translate(569.000906, 390.674745)"><g><path d="M -9.609375 -3.203125 L -9.609375 -12.796875 L -12.796875 -12.796875 L -12.796875 -3.203125 L -16 -3.203125 L -16 -12.796875 L -12.796875 -12.796875 L -12.796875 -16 L 0 -16 L 0 -3.203125 L -3.203125 -3.203125 L -3.203125 0 L -6.40625 0 L -6.40625 -3.203125 Z M -6.40625 -3.234375 L -3.203125 -3.234375 L -3.203125 -12.796875 L -6.40625 -12.796875 Z M -9.625 -3.203125 L -9.625 0 L -12.796875 0 L -12.796875 -3.203125 Z M -9.625 -3.203125 "/></g></g></g></svg>