<svg xmlns="http://www.w3.org/2000/svg" xmlns:xlink="http://www.w3.org/1999/xlink" width="1417" zoomAndPan="magnify" viewBox="0 0 1062.75 474.749983" height="633" preserveAspectRatio="xMidYMid meet" version="1.0"><defs><g/><clipPath id="4da4dd2d12"><path d="M 59.210938 127.519531 L 999.285156 127.519531 L 999.285156 341.136719 L 59.210938 341.136719 Z M 59.210938 127.519531 " clip-rule="nonzero"/></clipPath><clipPath id="e822618516"><path d="M 0.210938 0.519531 L 940.285156 0.519531 L 940.285156 214.136719 L 0.210938 214.136719 Z M 0.210938 0.519531 " clip-rule="nonzero"/></clipPath><clipPath id="2d22832699"><rect x="0" width="941" y="0" height="215"/></clipPath><clipPath id="658094bdc8"><rect x="0" width="158" y="0" height="294"/></clipPath><clipPath id="7c4895eff0"><path d="M 0.15625 292 L 37 292 L 37 329 L 0.15625 329 Z M 0.15625 292 " clip-rule="nonzero"/></clipPath><clipPath id="e85f78691e"><rect x="0" width="846" y="0" height="227"/></clipPath><clipPath id="70d495b21d"><path d="M 996.703125 127.492188 L 1047.675781 127.492188 L 1047.675781 341.132812 L 996.703125 341.132812 Z M 996.703125 127.492188 " clip-rule="nonzero"/></clipPath></defs><path stroke-linecap="butt" transform="matrix(0.749605, 0, 0, 0.749605, 155.159804, 336.637215)" fill="none" stroke-linejoin="miter" d="M 0.000469802 6.002498 L 514.76102 6.002498 " stroke="#905e64" stroke-width="12" stroke-opacity="1" stroke-miterlimit="4"/><path stroke-linecap="round" transform="matrix(0.749605, 0, 0, 0.749605, 155.159804, 336.637215)" fill="none" stroke-linejoin="round" d="M 553.760715 6.002498 C 553.760715 15.940021 545.704391 24.001556 535.761658 24.001556 C 525.818924 24.001556 517.7626 15.940021 517.7626 6.002498 C 517.7626 -3.940236 525.818924 -12.001771 535.761658 -12.001771 C 545.704391 -12.001771 553.760715 -3.940236 553.760715 6.002498 " stroke="#905e64" stroke-width="12" stroke-opacity="1" stroke-miterlimit="4"/><g clip-path="url(#4da4dd2d12)"><g transform="matrix(1, 0, 0, 1, 59, 127)"><g clip-path="url(#2d22832699)"><g clip-path="url(#e822618516)"><path fill="#905e64" d="M 0.210938 0.519531 L 940.617188 0.519531 L 940.617188 214.136719 L 0.210938 214.136719 Z M 0.210938 0.519531 " fill-opacity="1" fill-rule="nonzero"/></g></g></g></g><path stroke-linecap="butt" transform="matrix(-0.749605, 0, 0, -0.749605, 76.070818, 319.860523)" fill="none" stroke-linejoin="miter" d="M 0.000674244 5.99948 L 52.7993 5.99948 " stroke="#905e64" stroke-width="12" stroke-opacity="1" stroke-miterlimit="4"/><path stroke-linecap="round" transform="matrix(-0.749605, 0, 0, -0.749605, 76.070818, 319.860523)" fill="none" stroke-linejoin="round" d="M 91.798996 5.99948 C 91.798996 15.942214 83.737461 23.998538 73.799938 23.998538 C 63.857205 23.998538 55.795669 15.942214 55.795669 5.99948 C 55.795669 -3.943253 63.857205 -11.999578 73.799938 -11.999578 C 83.737461 -11.999578 91.798996 -3.943253 91.798996 5.99948 " stroke="#905e64" stroke-width="12" stroke-opacity="1" stroke-miterlimit="4"/><g transform="matrix(1, 0, 0, 1, 37, 88)"><g clip-path="url(#658094bdc8)"><g fill="#905e64" fill-opacity="1"><g transform="translate(130.019556, 296.584747)"><g><path d="M -95.375 -74.421875 L 0 -74.421875 L 0 -65.671875 L -13.375 -65.671875 C -8.832031 -62.929688 -5.359375 -59.3125 -2.953125 -54.8125 C -0.554688 -50.320312 0.640625 -45.25 0.640625 -39.59375 C 0.640625 -33.25 -0.8125 -27.503906 -3.71875 -22.359375 C -6.632812 -17.222656 -10.707031 -13.195312 -15.9375 -10.28125 C -21.164062 -7.363281 -27.117188 -5.90625 -33.796875 -5.90625 C -40.484375 -5.90625 -46.441406 -7.363281 -51.671875 -10.28125 C -56.898438 -13.195312 -60.945312 -17.222656 -63.8125 -22.359375 C -66.6875 -27.503906 -68.125 -33.25 -68.125 -39.59375 C -68.125 -45.070312 -66.988281 -50.015625 -64.71875 -54.421875 C -62.445312 -58.835938 -59.125 -62.460938 -54.75 -65.296875 L -95.375 -65.296875 Z M -7.453125 -40.359375 C -7.453125 -45.066406 -8.546875 -49.328125 -10.734375 -53.140625 C -12.921875 -56.960938 -16.023438 -59.960938 -20.046875 -62.140625 C -24.078125 -64.328125 -28.660156 -65.421875 -33.796875 -65.421875 C -38.941406 -65.421875 -43.523438 -64.328125 -47.546875 -62.140625 C -51.578125 -59.960938 -54.6875 -56.960938 -56.875 -53.140625 C -59.0625 -49.328125 -60.15625 -45.066406 -60.15625 -40.359375 C -60.15625 -35.554688 -59.0625 -31.25 -56.875 -27.4375 C -54.6875 -23.625 -51.578125 -20.625 -47.546875 -18.4375 C -43.523438 -16.257812 -38.941406 -15.171875 -33.796875 -15.171875 C -28.660156 -15.171875 -24.078125 -16.257812 -20.046875 -18.4375 C -16.023438 -20.625 -12.921875 -23.625 -10.734375 -27.4375 C -8.546875 -31.25 -7.453125 -35.554688 -7.453125 -40.359375 Z M -7.453125 -40.359375 "/></g></g></g><g fill="#905e64" fill-opacity="1"><g transform="translate(130.019556, 209.442776)"><g><path d="M -68.125 -36.375 C -68.125 -45.195312 -65.914062 -51.960938 -61.5 -56.671875 C -57.09375 -61.390625 -50.5625 -63.75 -41.90625 -63.75 L 0 -63.75 L 0 -55.015625 L -10.546875 -55.015625 C -7.023438 -52.953125 -4.28125 -49.925781 -2.3125 -45.9375 C -0.34375 -41.957031 0.640625 -37.226562 0.640625 -31.75 C 0.640625 -24.207031 -1.15625 -18.207031 -4.75 -13.75 C -8.351562 -9.289062 -13.109375 -7.0625 -19.015625 -7.0625 C -24.765625 -7.0625 -29.394531 -9.140625 -32.90625 -13.296875 C -36.414062 -17.453125 -38.171875 -24.070312 -38.171875 -33.15625 L -38.171875 -54.625 L -42.28125 -54.625 C -48.113281 -54.625 -52.550781 -52.992188 -55.59375 -49.734375 C -58.632812 -46.484375 -60.15625 -41.726562 -60.15625 -35.46875 C -60.15625 -31.1875 -59.445312 -27.070312 -58.03125 -23.125 C -56.613281 -19.1875 -54.664062 -15.804688 -52.1875 -12.984375 L -59 -8.875 C -61.90625 -12.300781 -64.148438 -16.410156 -65.734375 -21.203125 C -67.328125 -26.003906 -68.125 -31.0625 -68.125 -36.375 Z M -6.5625 -33.15625 C -6.5625 -38.300781 -7.738281 -42.710938 -10.09375 -46.390625 C -12.445312 -50.078125 -15.851562 -52.820312 -20.3125 -54.625 L -31.359375 -54.625 L -31.359375 -33.421875 C -31.359375 -21.847656 -27.332031 -16.0625 -19.28125 -16.0625 C -15.34375 -16.0625 -12.238281 -17.5625 -9.96875 -20.5625 C -7.695312 -23.5625 -6.5625 -27.757812 -6.5625 -33.15625 Z M -6.5625 -33.15625 "/></g></g></g><g fill="#905e64" fill-opacity="1"><g transform="translate(130.019556, 133.611265)"><g><path d="M -4.109375 -48.328125 C -2.566406 -46.609375 -1.390625 -44.484375 -0.578125 -41.953125 C 0.234375 -39.429688 0.640625 -36.800781 0.640625 -34.0625 C 0.640625 -27.71875 -1.070312 -22.832031 -4.5 -19.40625 C -7.925781 -15.976562 -12.765625 -14.265625 -19.015625 -14.265625 L -59.890625 -14.265625 L -59.890625 -2.1875 L -67.609375 -2.1875 L -67.609375 -14.265625 L -82.390625 -14.265625 L -82.390625 -23.390625 L -67.609375 -23.390625 L -67.609375 -43.953125 L -59.890625 -43.953125 L -59.890625 -23.390625 L -19.53125 -23.390625 C -15.507812 -23.390625 -12.445312 -24.394531 -10.34375 -26.40625 C -8.25 -28.425781 -7.203125 -31.320312 -7.203125 -35.09375 C -7.203125 -36.976562 -7.5 -38.796875 -8.09375 -40.546875 C -8.695312 -42.304688 -9.554688 -43.828125 -10.671875 -45.109375 Z M -4.109375 -48.328125 "/></g></g></g><g fill="#905e64" fill-opacity="1"><g transform="translate(130.019556, 81.428909)"><g><path d="M -68.125 -36.375 C -68.125 -45.195312 -65.914062 -51.960938 -61.5 -56.671875 C -57.09375 -61.390625 -50.5625 -63.75 -41.90625 -63.75 L 0 -63.75 L 0 -55.015625 L -10.546875 -55.015625 C -7.023438 -52.953125 -4.28125 -49.925781 -2.3125 -45.9375 C -0.34375 -41.957031 0.640625 -37.226562 0.640625 -31.75 C 0.640625 -24.207031 -1.15625 -18.207031 -4.75 -13.75 C -8.351562 -9.289062 -13.109375 -7.0625 -19.015625 -7.0625 C -24.765625 -7.0625 -29.394531 -9.140625 -32.90625 -13.296875 C -36.414062 -17.453125 -38.171875 -24.070312 -38.171875 -33.15625 L -38.171875 -54.625 L -42.28125 -54.625 C -48.113281 -54.625 -52.550781 -52.992188 -55.59375 -49.734375 C -58.632812 -46.484375 -60.15625 -41.726562 -60.15625 -35.46875 C -60.15625 -31.1875 -59.445312 -27.070312 -58.03125 -23.125 C -56.613281 -19.1875 -54.664062 -15.804688 -52.1875 -12.984375 L -59 -8.875 C -61.90625 -12.300781 -64.148438 -16.410156 -65.734375 -21.203125 C -67.328125 -26.003906 -68.125 -31.0625 -68.125 -36.375 Z M -6.5625 -33.15625 C -6.5625 -38.300781 -7.738281 -42.710938 -10.09375 -46.390625 C -12.445312 -50.078125 -15.851562 -52.820312 -20.3125 -54.625 L -31.359375 -54.625 L -31.359375 -33.421875 C -31.359375 -21.847656 -27.332031 -16.0625 -19.28125 -16.0625 C -15.34375 -16.0625 -12.238281 -17.5625 -9.96875 -20.5625 C -7.695312 -23.5625 -6.5625 -27.757812 -6.5625 -33.15625 Z M -6.5625 -33.15625 "/></g></g></g><g fill="#fb9680" fill-opacity="1"><g transform="translate(125.14973, 292.641239)"><g><path d="M -95.375 -74.421875 L 0 -74.421875 L 0 -65.671875 L -13.375 -65.671875 C -8.832031 -62.929688 -5.359375 -59.3125 -2.953125 -54.8125 C -0.554688 -50.320312 0.640625 -45.25 0.640625 -39.59375 C 0.640625 -33.25 -0.8125 -27.503906 -3.71875 -22.359375 C -6.632812 -17.222656 -10.707031 -13.195312 -15.9375 -10.28125 C -21.164062 -7.363281 -27.117188 -5.90625 -33.796875 -5.90625 C -40.484375 -5.90625 -46.441406 -7.363281 -51.671875 -10.28125 C -56.898438 -13.195312 -60.945312 -17.222656 -63.8125 -22.359375 C -66.6875 -27.503906 -68.125 -33.25 -68.125 -39.59375 C -68.125 -45.070312 -66.988281 -50.015625 -64.71875 -54.421875 C -62.445312 -58.835938 -59.125 -62.460938 -54.75 -65.296875 L -95.375 -65.296875 Z M -7.453125 -40.359375 C -7.453125 -45.066406 -8.546875 -49.328125 -10.734375 -53.140625 C -12.921875 -56.960938 -16.023438 -59.960938 -20.046875 -62.140625 C -24.078125 -64.328125 -28.660156 -65.421875 -33.796875 -65.421875 C -38.941406 -65.421875 -43.523438 -64.328125 -47.546875 -62.140625 C -51.578125 -59.960938 -54.6875 -56.960938 -56.875 -53.140625 C -59.0625 -49.328125 -60.15625 -45.066406 -60.15625 -40.359375 C -60.15625 -35.554688 -59.0625 -31.25 -56.875 -27.4375 C -54.6875 -23.625 -51.578125 -20.625 -47.546875 -18.4375 C -43.523438 -16.257812 -38.941406 -15.171875 -33.796875 -15.171875 C -28.660156 -15.171875 -24.078125 -16.257812 -20.046875 -18.4375 C -16.023438 -20.625 -12.921875 -23.625 -10.734375 -27.4375 C -8.546875 -31.25 -7.453125 -35.554688 -7.453125 -40.359375 Z M -7.453125 -40.359375 "/></g></g></g><g fill="#fb9680" fill-opacity="1"><g transform="translate(125.14973, 205.499267)"><g><path d="M -68.125 -36.375 C -68.125 -45.195312 -65.914062 -51.960938 -61.5 -56.671875 C -57.09375 -61.390625 -50.5625 -63.75 -41.90625 -63.75 L 0 -63.75 L 0 -55.015625 L -10.546875 -55.015625 C -7.023438 -52.953125 -4.28125 -49.925781 -2.3125 -45.9375 C -0.34375 -41.957031 0.640625 -37.226562 0.640625 -31.75 C 0.640625 -24.207031 -1.15625 -18.207031 -4.75 -13.75 C -8.351562 -9.289062 -13.109375 -7.0625 -19.015625 -7.0625 C -24.765625 -7.0625 -29.394531 -9.140625 -32.90625 -13.296875 C -36.414062 -17.453125 -38.171875 -24.070312 -38.171875 -33.15625 L -38.171875 -54.625 L -42.28125 -54.625 C -48.113281 -54.625 -52.550781 -52.992188 -55.59375 -49.734375 C -58.632812 -46.484375 -60.15625 -41.726562 -60.15625 -35.46875 C -60.15625 -31.1875 -59.445312 -27.070312 -58.03125 -23.125 C -56.613281 -19.1875 -54.664062 -15.804688 -52.1875 -12.984375 L -59 -8.875 C -61.90625 -12.300781 -64.148438 -16.410156 -65.734375 -21.203125 C -67.328125 -26.003906 -68.125 -31.0625 -68.125 -36.375 Z M -6.5625 -33.15625 C -6.5625 -38.300781 -7.738281 -42.710938 -10.09375 -46.390625 C -12.445312 -50.078125 -15.851562 -52.820312 -20.3125 -54.625 L -31.359375 -54.625 L -31.359375 -33.421875 C -31.359375 -21.847656 -27.332031 -16.0625 -19.28125 -16.0625 C -15.34375 -16.0625 -12.238281 -17.5625 -9.96875 -20.5625 C -7.695312 -23.5625 -6.5625 -27.757812 -6.5625 -33.15625 Z M -6.5625 -33.15625 "/></g></g></g><g fill="#fb9680" fill-opacity="1"><g transform="translate(125.14973, 129.667757)"><g><path d="M -4.109375 -48.328125 C -2.566406 -46.609375 -1.390625 -44.484375 -0.578125 -41.953125 C 0.234375 -39.429688 0.640625 -36.800781 0.640625 -34.0625 C 0.640625 -27.71875 -1.070312 -22.832031 -4.5 -19.40625 C -7.925781 -15.976562 -12.765625 -14.265625 -19.015625 -14.265625 L -59.890625 -14.265625 L -59.890625 -2.1875 L -67.609375 -2.1875 L -67.609375 -14.265625 L -82.390625 -14.265625 L -82.390625 -23.390625 L -67.609375 -23.390625 L -67.609375 -43.953125 L -59.890625 -43.953125 L -59.890625 -23.390625 L -19.53125 -23.390625 C -15.507812 -23.390625 -12.445312 -24.394531 -10.34375 -26.40625 C -8.25 -28.425781 -7.203125 -31.320312 -7.203125 -35.09375 C -7.203125 -36.976562 -7.5 -38.796875 -8.09375 -40.546875 C -8.695312 -42.304688 -9.554688 -43.828125 -10.671875 -45.109375 Z M -4.109375 -48.328125 "/></g></g></g><g fill="#fb9680" fill-opacity="1"><g transform="translate(125.14973, 77.4854)"><g><path d="M -68.125 -36.375 C -68.125 -45.195312 -65.914062 -51.960938 -61.5 -56.671875 C -57.09375 -61.390625 -50.5625 -63.75 -41.90625 -63.75 L 0 -63.75 L 0 -55.015625 L -10.546875 -55.015625 C -7.023438 -52.953125 -4.28125 -49.925781 -2.3125 -45.9375 C -0.34375 -41.957031 0.640625 -37.226562 0.640625 -31.75 C 0.640625 -24.207031 -1.15625 -18.207031 -4.75 -13.75 C -8.351562 -9.289062 -13.109375 -7.0625 -19.015625 -7.0625 C -24.765625 -7.0625 -29.394531 -9.140625 -32.90625 -13.296875 C -36.414062 -17.453125 -38.171875 -24.070312 -38.171875 -33.15625 L -38.171875 -54.625 L -42.28125 -54.625 C -48.113281 -54.625 -52.550781 -52.992188 -55.59375 -49.734375 C -58.632812 -46.484375 -60.15625 -41.726562 -60.15625 -35.46875 C -60.15625 -31.1875 -59.445312 -27.070312 -58.03125 -23.125 C -56.613281 -19.1875 -54.664062 -15.804688 -52.1875 -12.984375 L -59 -8.875 C -61.90625 -12.300781 -64.148438 -16.410156 -65.734375 -21.203125 C -67.328125 -26.003906 -68.125 -31.0625 -68.125 -36.375 Z M -6.5625 -33.15625 C -6.5625 -38.300781 -7.738281 -42.710938 -10.09375 -46.390625 C -12.445312 -50.078125 -15.851562 -52.820312 -20.3125 -54.625 L -31.359375 -54.625 L -31.359375 -33.421875 C -31.359375 -21.847656 -27.332031 -16.0625 -19.28125 -16.0625 C -15.34375 -16.0625 -12.238281 -17.5625 -9.96875 -20.5625 C -7.695312 -23.5625 -6.5625 -27.757812 -6.5625 -33.15625 Z M -6.5625 -33.15625 "/></g></g></g></g></g><path stroke-linecap="butt" transform="matrix(-0.749605, 0, 0, -0.749605, 73.463801, 315.131685)" fill="none" stroke-linejoin="miter" d="M -0.00139059 6.001655 L 52.797236 6.001655 " stroke="#fb9680" stroke-width="12" stroke-opacity="1" stroke-miterlimit="4"/><g clip-path="url(#7c4895eff0)"><path stroke-linecap="round" transform="matrix(-0.749605, 0, 0, -0.749605, 73.463801, 315.131685)" fill="none" stroke-linejoin="round" d="M 91.796931 6.001655 C 91.796931 15.939178 83.740607 24.000713 73.797874 24.000713 C 63.85514 24.000713 55.798816 15.939178 55.798816 6.001655 C 55.798816 -3.941078 63.85514 -11.997402 73.797874 -11.997402 C 83.740607 -11.997402 91.796931 -3.941078 91.796931 6.001655 " stroke="#fb9680" stroke-width="12" stroke-opacity="1" stroke-miterlimit="4"/></g><path stroke-linecap="butt" transform="matrix(0.749605, 0, 0, 0.749605, 155.159804, 332.021902)" fill="none" stroke-linejoin="miter" d="M 0.000469802 5.999998 L 514.76102 5.999998 " stroke="#fb9680" stroke-width="12" stroke-opacity="1" stroke-miterlimit="4"/><path stroke-linecap="round" transform="matrix(0.749605, 0, 0, 0.749605, 155.159804, 332.021902)" fill="none" stroke-linejoin="round" d="M 553.760715 5.999998 C 553.760715 15.942731 545.704391 23.999055 535.761658 23.999055 C 525.818924 23.999055 517.7626 15.942731 517.7626 5.999998 C 517.7626 -3.942736 525.818924 -11.99906 535.761658 -11.99906 C 545.704391 -11.99906 553.760715 -3.942736 553.760715 5.999998 " stroke="#fb9680" stroke-width="12" stroke-opacity="1" stroke-miterlimit="4"/><g transform="matrix(1, 0, 0, 1, 171, 121)"><g clip-path="url(#e85f78691e)"><g fill="#fb9680" fill-opacity="1"><g transform="translate(0.697793, 171.018773)"><g><path d="M 74.304688 -69.84375 L 69.6875 -47.535156 L 64.917969 -69.84375 L 54.765625 -109.53125 L 9.230469 -109.53125 L 9.230469 0 L 41.382812 0 L 41.382812 -45.996094 L 39.996094 -71.226562 L 45.382812 -45.996094 L 57.382812 0 L 82.304688 0 L 94.148438 -45.996094 L 99.996094 -72.304688 L 98.457031 -45.996094 L 98.457031 0 L 129.839844 0 L 129.839844 -109.53125 L 84.148438 -109.53125 Z M 74.304688 -69.84375 "/></g></g></g><g fill="#fb9680" fill-opacity="1"><g transform="translate(172.839404, 171.018773)"><g><path d="M 63.074219 3.539062 C 96.457031 3.539062 119.222656 -18.613281 119.222656 -54.304688 C 119.222656 -89.996094 96.457031 -112.148438 63.074219 -112.148438 C 29.691406 -112.148438 6.921875 -89.996094 6.921875 -54.304688 C 6.921875 -18.613281 29.691406 3.539062 63.074219 3.539062 Z M 63.074219 -23.84375 C 49.382812 -23.84375 41.382812 -34.152344 41.382812 -54.457031 C 41.382812 -74.457031 49.382812 -84.765625 63.074219 -84.765625 C 76.765625 -84.765625 84.765625 -74.457031 84.765625 -54.457031 C 84.765625 -34.152344 76.765625 -23.84375 63.074219 -23.84375 Z M 63.074219 -23.84375 "/></g></g></g><g fill="#fb9680" fill-opacity="1"><g transform="translate(327.443865, 171.018773)"><g><path d="M 63.226562 -67.6875 L 55.996094 -36.304688 L 48.457031 -67.84375 L 37.074219 -109.53125 L 2.308594 -109.53125 L 36.152344 0 L 75.074219 0 L 108.917969 -109.53125 L 74.765625 -109.53125 Z M 63.226562 -67.6875 "/></g></g></g><g fill="#fb9680" fill-opacity="1"><g transform="translate(471.741582, 171.018773)"><g><path d="M 43.691406 0 L 43.691406 -109.53125 L 9.230469 -109.53125 L 9.230469 0 Z M 43.691406 0 "/></g></g></g><g fill="#fb9680" fill-opacity="1"><g transform="translate(557.736336, 171.018773)"><g><path d="M 43.691406 -41.691406 L 93.996094 -41.691406 L 93.996094 -68.613281 L 43.691406 -68.613281 L 43.691406 -81.070312 L 102.457031 -81.070312 L 102.457031 -109.53125 L 9.230469 -109.53125 L 9.230469 0 L 103.992188 0 L 103.992188 -28.460938 L 43.691406 -28.460938 Z M 43.691406 -41.691406 "/></g></g></g><g fill="#fb9680" fill-opacity="1"><g transform="translate(700.957244, 171.018773)"><g><path d="M 55.535156 3.539062 C 86.148438 3.539062 105.222656 -9.84375 105.222656 -33.996094 C 105.222656 -51.226562 95.6875 -63.535156 73.996094 -68.304688 L 50.921875 -73.378906 C 44.921875 -74.765625 42.613281 -76.917969 42.613281 -80.148438 C 42.613281 -84.609375 47.074219 -86.609375 53.996094 -86.609375 C 62.148438 -86.609375 65.6875 -83.839844 66.613281 -78.148438 L 99.996094 -78.148438 C 98.761719 -100.917969 83.378906 -112.148438 54.457031 -112.148438 C 21.230469 -112.148438 8.308594 -97.378906 8.308594 -77.6875 C 8.308594 -58.613281 20.304688 -49.6875 37.84375 -45.84375 L 60.765625 -40.765625 C 67.074219 -39.382812 70.457031 -36.921875 70.457031 -32.152344 C 70.457031 -26.613281 65.996094 -23.84375 56.917969 -23.84375 C 46.152344 -23.84375 40.921875 -27.691406 40.152344 -36.304688 L 5.539062 -36.304688 C 7.539062 -10.152344 25.230469 3.539062 55.535156 3.539062 Z M 55.535156 3.539062 "/></g></g></g></g></g><g clip-path="url(#70d495b21d)"><path fill="#905e64" d="M 996.699219 127.632812 L 996.699219 341.011719 L 1047.421875 341.011719 L 1047.421875 127.632812 Z M 1040.085938 159.238281 L 1040.085938 163.414062 L 1044.390625 163.414062 L 1044.390625 159.238281 Z M 1040.085938 131.371094 L 1040.085938 135.542969 L 1044.390625 135.542969 L 1044.390625 131.371094 Z M 1040.085938 166.21875 L 1040.085938 170.390625 L 1044.390625 170.390625 L 1044.390625 166.21875 Z M 1040.085938 201.066406 L 1040.085938 205.242188 L 1044.390625 205.242188 L 1044.390625 201.066406 Z M 1040.085938 235.914062 L 1040.085938 240.089844 L 1044.390625 240.089844 L 1044.390625 235.914062 Z M 1040.085938 270.761719 L 1040.085938 274.9375 L 1044.390625 274.9375 L 1044.390625 270.761719 Z M 1040.085938 305.609375 L 1040.085938 309.785156 L 1044.390625 309.785156 L 1044.390625 305.609375 Z M 1040.085938 138.335938 L 1040.085938 142.511719 L 1044.390625 142.511719 L 1044.390625 138.335938 Z M 1040.085938 173.1875 L 1040.085938 177.359375 L 1044.390625 177.359375 L 1044.390625 173.1875 Z M 1040.085938 208.035156 L 1040.085938 212.207031 L 1044.390625 212.207031 L 1044.390625 208.035156 Z M 1040.085938 242.882812 L 1040.085938 247.058594 L 1044.390625 247.058594 L 1044.390625 242.882812 Z M 1040.085938 277.730469 L 1040.085938 281.90625 L 1044.390625 281.90625 L 1044.390625 277.730469 Z M 1040.085938 333.480469 L 1040.085938 337.65625 L 1044.390625 337.65625 L 1044.390625 333.480469 Z M 1040.085938 298.632812 L 1040.085938 302.808594 L 1044.390625 302.808594 L 1044.390625 298.632812 Z M 1040.085938 263.785156 L 1040.085938 267.960938 L 1044.390625 267.960938 L 1044.390625 263.785156 Z M 1040.085938 228.9375 L 1040.085938 233.109375 L 1044.390625 233.109375 L 1044.390625 228.9375 Z M 1040.085938 194.089844 L 1040.085938 198.261719 L 1044.390625 198.261719 L 1044.390625 194.089844 Z M 1040.085938 319.546875 L 1040.085938 323.722656 L 1044.390625 323.722656 L 1044.390625 319.546875 Z M 1040.085938 312.578125 L 1040.085938 316.753906 L 1044.390625 316.753906 L 1044.390625 312.578125 Z M 1040.085938 145.304688 L 1040.085938 149.480469 L 1044.390625 149.480469 L 1044.390625 145.304688 Z M 1040.085938 180.152344 L 1040.085938 184.328125 L 1044.390625 184.328125 L 1044.390625 180.152344 Z M 1040.085938 215.003906 L 1040.085938 219.175781 L 1044.390625 219.175781 L 1044.390625 215.003906 Z M 1040.085938 249.851562 L 1040.085938 254.023438 L 1044.390625 254.023438 L 1044.390625 249.851562 Z M 1040.085938 284.699219 L 1040.085938 288.875 L 1044.390625 288.875 L 1044.390625 284.699219 Z M 1040.085938 326.515625 L 1040.085938 330.6875 L 1044.390625 330.6875 L 1044.390625 326.515625 Z M 1040.085938 291.667969 L 1040.085938 295.839844 L 1044.390625 295.839844 L 1044.390625 291.667969 Z M 1040.085938 256.816406 L 1040.085938 260.992188 L 1044.390625 260.992188 L 1044.390625 256.816406 Z M 1040.085938 221.96875 L 1040.085938 226.144531 L 1044.390625 226.144531 L 1044.390625 221.96875 Z M 1040.085938 187.121094 L 1040.085938 191.296875 L 1044.390625 191.296875 L 1044.390625 187.121094 Z M 1040.085938 152.273438 L 1040.085938 156.449219 L 1044.390625 156.449219 L 1044.390625 152.273438 Z M 1011.039062 132.882812 C 1009.914062 132.882812 1008.832031 133.332031 1008.035156 134.125 C 1007.242188 134.921875 1006.792969 136.003906 1006.792969 137.128906 L 1006.792969 159.167969 C 1006.792969 160.296875 1007.242188 161.375 1008.035156 162.171875 C 1008.832031 162.96875 1009.914062 163.414062 1011.039062 163.414062 L 1033.078125 163.414062 C 1034.207031 163.414062 1035.285156 162.96875 1036.082031 162.171875 C 1036.878906 161.375 1037.324219 160.296875 1037.324219 159.167969 L 1037.324219 137.128906 C 1037.324219 136.003906 1036.878906 134.921875 1036.082031 134.125 C 1035.285156 133.332031 1034.207031 132.882812 1033.078125 132.882812 Z M 1011.039062 237.429688 C 1009.914062 237.429688 1008.832031 237.875 1008.035156 238.671875 C 1007.242188 239.46875 1006.792969 240.546875 1006.792969 241.675781 L 1006.792969 263.714844 C 1006.792969 264.839844 1007.242188 265.921875 1008.035156 266.714844 C 1008.832031 267.511719 1009.914062 267.960938 1011.039062 267.960938 L 1033.078125 267.960938 C 1034.207031 267.960938 1035.285156 267.511719 1036.082031 266.714844 C 1036.878906 265.921875 1037.324219 264.839844 1037.324219 263.714844 L 1037.324219 241.675781 C 1037.324219 240.546875 1036.878906 239.46875 1036.082031 238.671875 C 1035.285156 237.875 1034.207031 237.429688 1033.078125 237.429688 Z M 1011.039062 202.578125 C 1009.914062 202.578125 1008.832031 203.027344 1008.035156 203.824219 C 1007.242188 204.621094 1006.792969 205.699219 1006.792969 206.824219 L 1006.792969 228.867188 C 1006.792969 229.992188 1007.242188 231.070312 1008.035156 231.867188 C 1008.832031 232.664062 1009.914062 233.113281 1011.039062 233.113281 L 1033.078125 233.113281 C 1034.207031 233.113281 1035.285156 232.664062 1036.082031 231.867188 C 1036.878906 231.070312 1037.324219 229.992188 1037.324219 228.867188 L 1037.324219 206.824219 C 1037.324219 205.699219 1036.878906 204.621094 1036.082031 203.824219 C 1035.285156 203.027344 1034.207031 202.578125 1033.078125 202.578125 Z M 1011.039062 167.730469 C 1009.914062 167.730469 1008.832031 168.179688 1008.035156 168.976562 C 1007.242188 169.769531 1006.792969 170.851562 1006.792969 171.976562 L 1006.792969 194.015625 C 1006.792969 195.144531 1007.242188 196.222656 1008.035156 197.019531 C 1008.832031 197.816406 1009.914062 198.261719 1011.039062 198.261719 L 1033.078125 198.261719 C 1034.207031 198.261719 1035.285156 197.816406 1036.082031 197.019531 C 1036.878906 196.222656 1037.324219 195.144531 1037.324219 194.015625 L 1037.324219 171.976562 C 1037.324219 170.851562 1036.878906 169.769531 1036.082031 168.976562 C 1035.285156 168.179688 1034.207031 167.730469 1033.078125 167.730469 Z M 1011.039062 307.125 C 1009.914062 307.125 1008.832031 307.574219 1008.035156 308.367188 C 1007.242188 309.164062 1006.792969 310.246094 1006.792969 311.371094 L 1006.792969 333.410156 C 1006.792969 334.539062 1007.242188 335.617188 1008.035156 336.414062 C 1008.832031 337.210938 1009.914062 337.65625 1011.039062 337.65625 L 1033.078125 337.65625 C 1034.207031 337.65625 1035.285156 337.210938 1036.082031 336.414062 C 1036.878906 335.617188 1037.324219 334.539062 1037.324219 333.410156 L 1037.324219 311.371094 C 1037.324219 310.246094 1036.878906 309.164062 1036.082031 308.367188 C 1035.285156 307.574219 1034.207031 307.125 1033.078125 307.125 Z M 1011.039062 272.277344 C 1009.914062 272.277344 1008.832031 272.722656 1008.035156 273.519531 C 1007.242188 274.316406 1006.792969 275.398438 1006.792969 276.523438 L 1006.792969 298.5625 C 1006.792969 299.6875 1007.242188 300.769531 1008.035156 301.566406 C 1008.832031 302.363281 1009.914062 302.808594 1011.039062 302.808594 L 1033.078125 302.808594 C 1034.207031 302.808594 1035.285156 302.363281 1036.082031 301.566406 C 1036.878906 300.769531 1037.324219 299.6875 1037.324219 298.5625 L 1037.324219 276.523438 C 1037.324219 275.398438 1036.878906 274.316406 1036.082031 273.519531 C 1035.285156 272.722656 1034.207031 272.277344 1033.078125 272.277344 Z M 999.558594 319.546875 L 999.558594 323.722656 L 1003.863281 323.722656 L 1003.863281 319.546875 Z M 999.558594 152.273438 L 999.558594 156.449219 L 1003.863281 156.449219 L 1003.863281 152.273438 Z M 999.558594 187.121094 L 999.558594 191.296875 L 1003.863281 191.296875 L 1003.863281 187.121094 Z M 999.558594 221.972656 L 999.558594 226.144531 L 1003.863281 226.144531 L 1003.863281 221.972656 Z M 999.558594 256.820312 L 999.558594 260.992188 L 1003.863281 260.992188 L 1003.863281 256.820312 Z M 999.558594 291.667969 L 999.558594 295.84375 L 1003.863281 295.84375 L 1003.863281 291.667969 Z M 999.558594 312.582031 L 999.558594 316.753906 L 1003.863281 316.753906 L 1003.863281 312.582031 Z M 999.558594 277.734375 L 999.558594 281.90625 L 1003.863281 281.90625 L 1003.863281 277.734375 Z M 999.558594 242.882812 L 999.558594 247.058594 L 1003.863281 247.058594 L 1003.863281 242.882812 Z M 999.558594 208.035156 L 999.558594 212.210938 L 1003.863281 212.210938 L 1003.863281 208.035156 Z M 999.558594 173.1875 L 999.558594 177.363281 L 1003.863281 177.363281 L 1003.863281 173.1875 Z M 999.558594 138.339844 L 999.558594 142.511719 L 1003.863281 142.511719 L 1003.863281 138.339844 Z M 999.558594 326.515625 L 999.558594 330.691406 L 1003.863281 330.691406 L 1003.863281 326.515625 Z M 999.558594 159.242188 L 999.558594 163.417969 L 1003.863281 163.417969 L 1003.863281 159.242188 Z M 999.558594 194.089844 L 999.558594 198.265625 L 1003.863281 198.265625 L 1003.863281 194.089844 Z M 999.558594 228.9375 L 999.558594 233.113281 L 1003.863281 233.113281 L 1003.863281 228.9375 Z M 999.558594 263.789062 L 999.558594 267.960938 L 1003.863281 267.960938 L 1003.863281 263.789062 Z M 999.558594 298.636719 L 999.558594 302.808594 L 1003.863281 302.808594 L 1003.863281 298.636719 Z M 999.558594 305.613281 L 999.558594 309.789062 L 1003.863281 309.789062 L 1003.863281 305.613281 Z M 999.558594 270.765625 L 999.558594 274.941406 L 1003.863281 274.941406 L 1003.863281 270.765625 Z M 999.558594 235.917969 L 999.558594 240.089844 L 1003.863281 240.089844 L 1003.863281 235.917969 Z M 999.558594 201.070312 L 999.558594 205.242188 L 1003.863281 205.242188 L 1003.863281 201.070312 Z M 999.558594 166.21875 L 999.558594 170.394531 L 1003.863281 170.394531 L 1003.863281 166.21875 Z M 999.558594 131.371094 L 999.558594 135.546875 L 1003.863281 135.546875 L 1003.863281 131.371094 Z M 999.558594 333.484375 L 999.558594 337.660156 L 1003.863281 337.660156 L 1003.863281 333.484375 Z M 999.558594 145.308594 L 999.558594 149.480469 L 1003.863281 149.480469 L 1003.863281 145.308594 Z M 999.558594 180.15625 L 999.558594 184.332031 L 1003.863281 184.332031 L 1003.863281 180.15625 Z M 999.558594 249.851562 L 999.558594 254.027344 L 1003.863281 254.027344 L 1003.863281 249.851562 Z M 999.558594 284.699219 L 999.558594 288.875 L 1003.863281 288.875 L 1003.863281 284.699219 Z M 999.558594 215.003906 L 999.558594 219.179688 L 1003.863281 219.179688 L 1003.863281 215.003906 Z M 999.558594 215.003906 " fill-opacity="1" fill-rule="evenodd"/></g></svg>